<svg width="36" height="36" viewBox="0 0 36 36" fill="none" xmlns="http://www.w3.org/2000/svg">
<path d="M18 12C25.4558 12 31.5 9.98528 31.5 7.5C31.5 5.01472 25.4558 3 18 3C10.5442 3 4.5 5.01472 4.5 7.5C4.5 9.98528 10.5442 12 18 12Z" stroke="#31B680" stroke-width="4" stroke-linecap="round" stroke-linejoin="round"/>
<path d="M31.5 18C31.5 20.49 25.5 22.5 18 22.5C10.5 22.5 4.5 20.49 4.5 18" stroke="url(#paint0_linear_306_2)" stroke-width="4" stroke-linecap="round" stroke-linejoin="round"/>
<path d="M4.5 7.5V28.5C4.5 30.99 10.5 33 18 33C25.5 33 31.5 30.99 31.5 28.5V7.5" stroke="url(#paint1_linear_306_2)" stroke-width="4" stroke-linecap="round" stroke-linejoin="round"/>
<defs>
<linearGradient id="paint0_linear_306_2" x1="18" y1="18" x2="18" y2="22.5" gradientUnits="userSpaceOnUse">
<stop stop-color="#31B680"/>
<stop offset="1" stop-color="#242D38"/>
</linearGradient>
<linearGradient id="paint1_linear_306_2" x1="18" y1="7.5" x2="18" y2="33" gradientUnits="userSpaceOnUse">
<stop stop-color="#31B680"/>
<stop offset="1" stop-color="#242D38"/>
</linearGradient>
</defs>
</svg>
