<svg width="141" height="105" viewBox="0 0 141 105" fill="none" xmlns="http://www.w3.org/2000/svg">
<path d="M1.85 57.55C1.85 54.15 2.63333 51.1 4.2 48.4C5.8 45.7 7.95 43.6 10.65 42.1C13.3833 40.5667 16.3667 39.8 19.6 39.8C23.3 39.8 26.5833 40.7167 29.45 42.55C32.35 44.35 34.45 46.9167 35.75 50.25H28.9C28 48.4167 26.75 47.05 25.15 46.15C23.55 45.25 21.7 44.8 19.6 44.8C17.3 44.8 15.25 45.3167 13.45 46.35C11.65 47.3833 10.2333 48.8667 9.2 50.8C8.2 52.7333 7.7 54.9833 7.7 57.55C7.7 60.1167 8.2 62.3667 9.2 64.3C10.2333 66.2333 11.65 67.7333 13.45 68.8C15.25 69.8333 17.3 70.35 19.6 70.35C21.7 70.35 23.55 69.9 25.15 69C26.75 68.1 28 66.7333 28.9 64.9H35.75C34.45 68.2333 32.35 70.8 29.45 72.6C26.5833 74.4 23.3 75.3 19.6 75.3C16.3333 75.3 13.35 74.55 10.65 73.05C7.95 71.5167 5.8 69.4 4.2 66.7C2.63333 64 1.85 60.95 1.85 57.55ZM60.4719 75L52.4719 61.1H48.1219V75H42.4219V40.25H54.4219C57.0885 40.25 59.3385 40.7167 61.1719 41.65C63.0385 42.5833 64.4219 43.8333 65.3219 45.4C66.2552 46.9667 66.7219 48.7167 66.7219 50.65C66.7219 52.9167 66.0552 54.9833 64.7219 56.85C63.4219 58.6833 61.4052 59.9333 58.6719 60.6L67.2719 75H60.4719ZM48.1219 56.55H54.4219C56.5552 56.55 58.1552 56.0167 59.2219 54.95C60.3219 53.8833 60.8719 52.45 60.8719 50.65C60.8719 48.85 60.3385 47.45 59.2719 46.45C58.2052 45.4167 56.5885 44.9 54.4219 44.9H48.1219V56.55ZM79.6637 40.25V62.4C79.6637 65.0333 80.347 67.0167 81.7137 68.35C83.1137 69.6833 85.047 70.35 87.5137 70.35C90.0137 70.35 91.947 69.6833 93.3137 68.35C94.7137 67.0167 95.4137 65.0333 95.4137 62.4V40.25H101.114V62.3C101.114 65.1333 100.497 67.5333 99.2637 69.5C98.0303 71.4667 96.3803 72.9333 94.3137 73.9C92.247 74.8667 89.9637 75.35 87.4637 75.35C84.9637 75.35 82.6803 74.8667 80.6137 73.9C78.5803 72.9333 76.9637 71.4667 75.7637 69.5C74.5637 67.5333 73.9637 65.1333 73.9637 62.3V40.25H79.6637ZM119.885 40.25C123.585 40.25 126.818 40.9667 129.585 42.4C132.385 43.8 134.535 45.8333 136.035 48.5C137.568 51.1333 138.335 54.2167 138.335 57.75C138.335 61.2833 137.568 64.35 136.035 66.95C134.535 69.55 132.385 71.55 129.585 72.95C126.818 74.3167 123.585 75 119.885 75H108.535V40.25H119.885ZM119.885 70.35C123.952 70.35 127.068 69.25 129.235 67.05C131.402 64.85 132.485 61.75 132.485 57.75C132.485 53.7167 131.402 50.5667 129.235 48.3C127.068 46.0333 123.952 44.9 119.885 44.9H114.235V70.35H119.885Z" fill="#242D38"/>
<path d="M71 12C78.4558 12 84.5 9.98528 84.5 7.5C84.5 5.01472 78.4558 3 71 3C63.5442 3 57.5 5.01472 57.5 7.5C57.5 9.98528 63.5442 12 71 12Z" stroke="#31B680" stroke-width="4" stroke-linecap="round" stroke-linejoin="round"/>
<path d="M84.5 18C84.5 20.49 78.5 22.5 71 22.5C63.5 22.5 57.5 20.49 57.5 18" stroke="url(#paint0_linear_303_16)" stroke-width="4" stroke-linecap="round" stroke-linejoin="round"/>
<path d="M57.5 7.5V28.5C57.5 30.99 63.5 33 71 33C78.5 33 84.5 30.99 84.5 28.5V7.5" stroke="url(#paint1_linear_303_16)" stroke-width="4" stroke-linecap="round" stroke-linejoin="round"/>
<circle cx="32" cy="57" r="3" fill="#31B680"/>
<circle cx="54" cy="51" r="3" fill="#31B680"/>
<circle cx="87" cy="64" r="3" fill="#31B680"/>
<circle cx="123" cy="57" r="3" fill="#31B680"/>
<defs>
<linearGradient id="paint0_linear_303_16" x1="71" y1="18" x2="71" y2="22.5" gradientUnits="userSpaceOnUse">
<stop stop-color="#31B680"/>
<stop offset="1" stop-color="#242D38"/>
</linearGradient>
<linearGradient id="paint1_linear_303_16" x1="71" y1="7.5" x2="71" y2="33" gradientUnits="userSpaceOnUse">
<stop stop-color="#31B680"/>
<stop offset="1" stop-color="#242D38"/>
</linearGradient>
</defs>
</svg>
